<svg width="28" height="28" viewBox="0 0 28 28" fill="none" xmlns="http://www.w3.org/2000/svg">
<g clip-path="url(#clip0_1_473)">
<path d="M25.6676 19.7401V23.2401C25.669 23.565 25.6024 23.8866 25.4722 24.1843C25.3421 24.482 25.1512 24.7493 24.9117 24.9689C24.6723 25.1886 24.3896 25.3558 24.0819 25.4599C23.7741 25.564 23.4479 25.6027 23.1243 25.5734C19.5343 25.1833 16.0858 23.9566 13.056 21.9918C10.2371 20.2005 7.84721 17.8106 6.05598 14.9918C4.08429 11.9482 2.85726 8.48292 2.47431 4.87676C2.44516 4.55414 2.4835 4.22898 2.5869 3.92199C2.69029 3.615 2.85648 3.3329 3.07487 3.09365C3.29327 2.8544 3.55909 2.66325 3.8554 2.53237C4.15172 2.40148 4.47204 2.33373 4.79598 2.33343H8.29598C8.86217 2.32785 9.41107 2.52835 9.84037 2.89755C10.2697 3.26674 10.5501 3.77945 10.6293 4.34009C10.777 5.46017 11.051 6.55994 11.446 7.61843C11.6029 8.036 11.6369 8.48983 11.5439 8.92612C11.4508 9.36241 11.2347 9.76289 10.921 10.0801L9.43931 11.5618C11.1001 14.4826 13.5185 16.9009 16.4393 18.5618L17.921 17.0801C18.2382 16.7664 18.6387 16.5502 19.075 16.4572C19.5112 16.3642 19.9651 16.3981 20.3826 16.5551C21.4411 16.9501 22.5409 17.224 23.661 17.3718C24.2277 17.4517 24.7453 17.7372 25.1153 18.1738C25.4853 18.6105 25.6818 19.1679 25.6676 19.7401Z" stroke="#309689" stroke-width="3" stroke-linecap="round" stroke-linejoin="round"/>
</g>
<defs>
<clipPath id="clip0_1_473">
<rect width="28" height="28" fill="white"/>
</clipPath>
</defs>
</svg>
