<svg width="23" height="23" viewBox="0 0 23 23" fill="none" xmlns="http://www.w3.org/2000/svg">
<path d="M20.2652 17.6798C19.9281 18.4404 19.5308 19.1398 19.072 19.782C18.4466 20.6576 17.9355 21.2629 17.5428 21.5981C16.9337 22.1487 16.2837 22.4277 15.5902 22.4379C15.0925 22.4337 14.4934 22.2868 13.7972 21.9935C13.0986 21.7015 12.4556 21.5543 11.8665 21.5492C11.2487 21.5439 10.5849 21.6798 9.87367 21.9597C9.16139 22.2409 8.58828 22.3857 8.15097 22.3968C7.48584 22.4194 6.82563 22.1209 6.16942 21.5001C5.75038 21.1282 5.22772 20.4924 4.60278 19.5926C3.93224 18.6317 3.38373 17.5194 2.95743 16.253C2.50097 14.8852 2.27764 13.5626 2.28866 12.2841C2.30129 10.8196 2.62863 9.55917 3.27162 8.50613C3.7771 7.66019 4.44561 6.99522 5.27931 6.51001C6.11301 6.0248 7.0114 5.78163 7.9767 5.7739C8.5048 5.77845 9.19593 5.94777 10.0538 6.27624C10.9092 6.60576 11.4588 6.77386 11.7004 6.77595C11.881 6.7775 12.4948 6.59177 13.5358 6.21992C14.5202 5.87523 15.3497 5.73614 16.0277 5.79959C17.865 5.96382 19.2401 6.70051 20.1475 8.01418C18.4945 8.99633 17.6691 10.3848 17.6699 12.1751C17.6727 13.5696 18.1685 14.7343 19.1547 15.6642C19.6016 16.0957 20.1019 16.4305 20.6597 16.67C20.5352 17.0211 20.4042 17.3572 20.2652 17.6798ZM16.1914 1.05027C16.182 2.14318 15.7739 3.16019 14.9699 4.09785C13.9998 5.21241 12.8325 5.85123 11.5736 5.73799C11.5587 5.60674 11.5506 5.46866 11.5519 5.32365C11.5609 4.27446 12.0273 3.15555 12.8464 2.24446C13.2553 1.78311 13.7737 1.40104 14.4009 1.0981C15.0267 0.799751 15.6176 0.636866 16.1723 0.612882C16.1872 0.759127 16.1927 0.905299 16.1914 1.05026L16.1914 1.05027Z" fill="white"/>
</svg>
