<svg width="25" height="25" viewBox="0 0 25 25" fill="none" xmlns="http://www.w3.org/2000/svg">
<path d="M12.5266 9.4017C11.7049 9.39462 10.914 9.71425 10.328 10.2903C9.74192 10.8663 9.4087 11.6516 9.40162 12.4733C9.39454 13.295 9.71417 14.0859 10.2902 14.6719C10.8662 15.258 11.6515 15.5912 12.4732 15.5983C13.2949 15.6054 14.0858 15.2857 14.6719 14.7097C15.2579 14.1337 15.5911 13.3484 15.5982 12.5267C15.6053 11.705 15.2857 10.9141 14.7096 10.3281C14.1336 9.74201 13.3483 9.40879 12.5266 9.4017ZM12.4554 17.6638C11.0859 17.652 9.77712 17.0966 8.81707 16.1199C7.85701 15.1431 7.32429 13.825 7.33609 12.4555C7.3479 11.086 7.90326 9.77721 8.88002 8.81715C9.85677 7.85709 11.1749 7.32437 12.5444 7.33618C13.914 7.34798 15.2227 7.90335 16.1828 8.8801C17.1428 9.85685 17.6755 11.175 17.6637 12.5445C17.6519 13.914 17.0966 15.2228 16.1198 16.1828C15.1431 17.1429 13.8249 17.6756 12.4554 17.6638ZM12.5667 4.75427C7.40286 4.70975 2.96528 7.88364 1.13951 12.4021C2.88711 16.9513 7.26933 20.2012 12.4331 20.2457C17.597 20.2902 22.0346 17.1164 23.8603 12.5979C22.1127 8.04869 17.7305 4.79878 12.5667 4.75427Z" fill="#A7ACD7"/>
</svg>
