<svg width="25" height="25" viewBox="0 0 25 25" fill="none" xmlns="http://www.w3.org/2000/svg">
<path d="M15.6107 7.29519L15.6335 20.7827L11.2523 18.9079L10.4302 18.5558L9.6093 18.9107L5.23449 20.8004L5.21163 7.31282L15.6107 7.29519ZM19.7597 1.04872L9.35026 1.06636C8.20637 1.0683 7.28244 2.00579 7.28438 3.14968L17.6834 3.13205C18.8273 3.13011 19.7648 4.06444 19.7668 5.20833L19.7897 18.7271L21.8712 19.7635L21.843 3.125C21.8411 1.9811 20.9036 1.04678 19.7597 1.04872ZM15.6071 5.21538L5.2081 5.23301C4.06421 5.23495 3.12988 6.17245 3.13182 7.31635L3.16003 23.9548L10.4341 20.8228L17.7187 23.9301L17.6905 7.29166C17.6885 6.14777 16.751 5.21344 15.6071 5.21538Z" fill="#C9CDF0"/>
</svg>
