<svg width="40" height="40" viewBox="0 0 40 40" fill="none" xmlns="http://www.w3.org/2000/svg">
<path d="M7.77283 13.269C7.77283 13.3623 7.77282 13.5023 7.81282 13.6823C7.85282 14.0423 7.92615 14.5423 8.03282 15.1023C8.17622 15.7338 8.36108 16.3551 8.58616 16.9623C8.84609 17.6167 9.16519 18.2459 9.53949 18.8423C9.72616 19.1356 9.91948 19.409 10.1128 19.669C10.3061 19.929 10.5395 20.1756 10.7462 20.3956C11.1196 20.79 11.5304 21.1472 11.9728 21.4623C13.7328 22.7956 16.6861 23.1023 18.8195 22.7956C18.857 22.8069 18.8971 22.8064 18.9344 22.7944C18.9717 22.7823 19.0044 22.7592 19.0283 22.7281C19.0521 22.697 19.066 22.6594 19.068 22.6203C19.07 22.5812 19.0601 22.5423 19.0395 22.509C18.6173 20.6663 18.923 18.7317 19.8928 17.109C20.4573 16.2331 21.1292 15.4313 21.8928 14.7223L22.1995 14.429C22.4829 14.1881 22.7813 13.9654 23.0928 13.7623C24.1299 13.0895 25.2827 12.6148 26.4928 12.3623C27.8456 12.0952 29.2334 12.0547 30.5995 12.2423C31.0884 12.308 31.5735 12.3992 32.0528 12.5156L32.5995 12.669C32.5828 11.7798 32.4391 10.8975 32.1728 10.049C31.8776 9.15197 31.4651 8.29792 30.9461 7.50897C29.781 5.75164 28.1707 4.33461 26.2795 3.4023C24.2785 2.39182 22.0607 1.88603 19.8195 1.92898C17.5947 1.96321 15.4144 2.55702 13.4795 3.65564C11.6508 4.66368 10.1195 6.13516 9.03949 7.9223C8.11444 9.48428 7.66498 11.2821 7.74615 13.0956L7.77283 13.269Z" fill="url(#paint0_linear_0_365)"/>
<path d="M38.8196 23.6553C38.7529 23.1286 38.6596 22.6086 38.5463 22.102C38.2925 21.1294 37.9114 20.1947 37.413 19.322C36.5395 17.7261 35.2062 16.43 33.5863 15.602L33.0929 15.362C32.6575 15.1683 32.2125 14.9969 31.7596 14.8486C30.4714 14.4194 29.1165 14.2252 27.7596 14.2753C24.8663 14.3286 21.6129 16.2219 20.4263 18.9419C20.41 18.9918 20.41 19.0455 20.4263 19.0953C20.4378 19.14 20.4636 19.1798 20.4996 19.2086C21.5769 20.277 22.5647 21.432 23.453 22.6619C24.2317 24.0087 24.7963 25.4683 25.1263 26.9886V27.102C25.155 27.2004 25.1772 27.3006 25.1929 27.4019C25.2329 27.6553 25.293 28.0353 25.333 28.5153C25.3561 29.0714 25.3383 29.6285 25.2796 30.1819C25.1936 30.8474 25.0463 31.5035 24.8396 32.1419C24.7263 32.4753 24.5996 32.8086 24.4596 33.1553C24.3196 33.502 24.1463 33.8219 23.9796 34.1086C23.6635 34.6923 23.2977 35.2477 22.8863 35.7686C22.5886 36.1603 22.2657 36.5322 21.9196 36.882L21.5129 37.2886C23.1436 38.1758 24.9947 38.5761 26.8463 38.4419C28.9455 38.3017 30.971 37.612 32.7196 36.4419C34.5928 35.2256 36.1368 33.5658 37.2149 31.6098C38.2929 29.6537 38.8716 27.4619 38.8996 25.2286C38.9079 24.703 38.8812 24.1774 38.8196 23.6553Z" fill="url(#paint1_linear_0_365)"/>
<path d="M22.6202 32.322C23.5068 30.682 23.5202 28.6953 23.3535 26.8887C23.3048 25.4831 22.8763 24.117 22.1135 22.9353C21.0668 23.8887 19.3602 24.0153 18.0068 24.1153C17.343 24.1906 16.6748 24.2217 16.0068 24.2087C14.9666 24.1619 13.9364 23.9849 12.9402 23.682L12.5468 23.5487C12.1892 23.4294 11.8415 23.2823 11.5068 23.1087C11.0131 22.8596 10.5424 22.5674 10.1002 22.2353C9.85352 22.042 9.58685 21.8353 9.33352 21.6087C9.08019 21.382 8.85352 21.1353 8.60685 20.8687C8.12958 20.3308 7.69911 19.7532 7.32017 19.142C6.98613 18.5686 6.68995 17.974 6.43352 17.362C6.22018 16.8153 6.06018 16.322 5.95351 15.9687C5.89628 15.7871 5.84954 15.6023 5.81352 15.4153C4.24129 16.3755 2.97429 17.7627 2.16018 19.4153C1.24589 21.2969 0.823836 23.3796 0.933515 25.4687C1.04741 27.7095 1.71881 29.8864 2.88684 31.802C4.03846 33.7149 5.64059 35.3171 7.55351 36.4687C9.34133 37.5379 11.3774 38.1216 13.4602 38.162C15.2808 38.1986 17.0707 37.6902 18.6002 36.702L19.0602 36.382C19.4493 36.1026 19.8211 35.7998 20.1735 35.4753C20.6589 35.0447 21.1051 34.5717 21.5068 34.062C21.7268 33.7887 21.9335 33.5153 22.1269 33.222C22.3202 32.9287 22.4602 32.6287 22.6202 32.322Z" fill="url(#paint2_linear_0_365)"/>
<defs>
<linearGradient id="paint0_linear_0_365" x1="13.8328" y1="21.5156" x2="26.0528" y2="1.96231" gradientUnits="userSpaceOnUse">
<stop stop-color="#E5322D"/>
<stop offset="1" stop-color="#F08504"/>
</linearGradient>
<linearGradient id="paint1_linear_0_365" x1="21.5063" y1="18.3553" x2="34.8396" y2="34.7953" gradientUnits="userSpaceOnUse">
<stop stop-color="#004996"/>
<stop offset="1" stop-color="#3AB4E6"/>
</linearGradient>
<linearGradient id="paint2_linear_0_365" x1="2.95352" y1="31.5353" x2="20.9535" y2="20.8687" gradientUnits="userSpaceOnUse">
<stop stop-color="#97BE11"/>
<stop offset="1" stop-color="#258F2D"/>
</linearGradient>
</defs>
</svg>
