<svg width="40" height="40" viewBox="0 0 40 40" fill="none" xmlns="http://www.w3.org/2000/svg">
<path d="M9.25334 27.7935C6.43145 26.6223 3.82976 24.9787 1.56 22.9335C1.21836 20.7604 1.2635 18.5441 1.69334 16.3868C4.00339 14.3272 6.651 12.6809 9.52 11.5201C9.60528 11.6254 9.70136 11.7215 9.80666 11.8068C8.26748 16.9099 8.19127 22.3425 9.58667 27.4868C9.46323 27.5747 9.35125 27.6778 9.25334 27.7935Z" fill="url(#paint0_linear_0_163)"/>
<path d="M10.7733 30.9731C11.8339 33.5368 13.2647 35.9312 15.02 38.0797C11.9075 37.2089 9.073 35.5481 6.79168 33.2586C4.51037 30.9691 2.85973 28.1287 2 25.0131C4.07007 26.6555 6.3587 28.0017 8.8 29.0131C8.79632 29.0284 8.79632 29.0444 8.8 29.0597C8.8 29.5725 9.00369 30.0642 9.36626 30.4268C9.72883 30.7894 10.2206 30.9931 10.7333 30.9931L10.7733 30.9731Z" fill="url(#paint1_linear_0_163)"/>
<path d="M9.07376 10.3468C6.63436 11.3264 4.34343 12.6413 2.26709 14.2535C3.21695 11.3196 4.87888 8.66674 7.10437 6.53199C9.32985 4.39725 12.0496 2.84712 15.0204 2.02014C13.4335 3.95049 12.1128 6.0851 11.0938 8.36681H10.9871C10.4743 8.36681 9.98258 8.5705 9.62001 8.93307C9.25744 9.29564 9.05376 9.78739 9.05376 10.3001C9.05561 10.3173 9.06258 10.3336 9.07376 10.3468Z" fill="url(#paint2_linear_0_163)"/>
<path d="M12.2866 8.85344C13.4924 6.17363 15.1297 3.70981 17.1333 1.56011C18.099 1.40667 19.0755 1.33086 20.0533 1.33344C21.0245 1.33084 21.9943 1.40665 22.9533 1.56011C24.9598 3.7238 26.5992 6.2009 27.8066 8.89345C27.6661 9.0313 27.543 9.18577 27.44 9.35344C24.9274 8.64713 22.3299 8.28825 19.72 8.28678C17.3083 8.28738 14.9065 8.59655 12.5733 9.20677C12.4923 9.07786 12.3961 8.95922 12.2866 8.85344Z" fill="url(#paint3_linear_0_163)"/>
<path d="M28.1341 30.5067C26.9028 33.4617 25.1506 36.1714 22.9608 38.5067C21.0326 38.8089 19.069 38.8089 17.1408 38.5067C14.9561 36.1688 13.2065 33.4596 11.9741 30.5067C12.0865 30.4053 12.1892 30.2937 12.2808 30.1733C14.7061 30.8311 17.2078 31.1652 19.7208 31.1667C22.4297 31.1652 25.1243 30.7723 27.7208 30C27.8298 30.1904 27.9695 30.3616 28.1341 30.5067Z" fill="url(#paint4_linear_0_163)"/>
<path d="M29.0668 12.2132C30.5411 17.0599 30.6197 22.2239 29.2935 27.1132C28.8491 27.1343 28.4258 27.3084 28.0952 27.6062C27.7647 27.9039 27.5474 28.3068 27.4802 28.7465C24.9626 29.5023 22.3487 29.8886 19.7202 29.8932C17.3315 29.8888 14.9537 29.5728 12.6468 28.9532C12.6288 28.4721 12.43 28.0155 12.0902 27.6744C11.7504 27.3334 11.2945 27.133 10.8135 27.1132C9.49142 22.2264 9.56532 17.0668 11.0268 12.2199C11.513 12.2123 11.9783 12.0212 12.3295 11.6849C12.6806 11.3486 12.8916 10.8919 12.9202 10.4065C17.6123 9.18387 22.547 9.24604 27.2068 10.5865C27.2745 11.0338 27.4985 11.4426 27.839 11.7404C28.1795 12.0382 28.6145 12.2057 29.0668 12.2132Z" fill="url(#paint5_radial_0_163)"/>
<path d="M29.0207 8.34686C27.9904 6.06765 26.6682 3.932 25.0874 1.99353C28.1802 2.85474 30.9996 4.4966 33.275 6.76146C35.5503 9.02632 37.2052 11.8381 38.0807 14.9269C35.952 13.1431 33.5734 11.6809 31.0207 10.5869C31.0313 10.4871 31.0313 10.3866 31.0207 10.2869C31.019 9.7735 30.8138 9.28176 30.4502 8.91938C30.0865 8.557 29.5941 8.35352 29.0807 8.35353L29.0207 8.34686Z" fill="url(#paint6_linear_0_163)"/>
<path d="M31.2861 28.7003C33.8219 27.5734 36.1783 26.0796 38.2794 24.267C37.5213 27.5425 35.8948 30.5532 33.5709 32.9827C31.2469 35.4123 28.3113 37.1709 25.0728 38.0736C26.8313 35.9273 28.2665 33.5353 29.3328 30.9736H29.3794C29.6613 30.9707 29.9392 30.9068 30.1941 30.7863C30.4489 30.6658 30.6746 30.4916 30.8558 30.2756C31.0369 30.0597 31.1692 29.807 31.2435 29.5351C31.3177 29.2632 31.3323 28.9784 31.2861 28.7003Z" fill="url(#paint7_linear_0_163)"/>
<path d="M38.7671 20.0468C38.7667 20.7688 38.7222 21.4902 38.6338 22.2068C36.309 24.4625 33.5997 26.2845 30.6338 27.5868C30.5962 27.5479 30.5536 27.5142 30.5071 27.4868C31.9086 22.3467 31.8254 16.9148 30.2671 11.8201L30.3938 11.7201C33.4038 13.007 36.1552 14.8299 38.5138 17.1001C38.6792 18.0737 38.7639 19.0592 38.7671 20.0468Z" fill="url(#paint8_linear_0_163)"/>
<defs>
<linearGradient id="paint0_linear_0_163" x1="1.33334" y1="19.6601" x2="9.80666" y2="19.6601" gradientUnits="userSpaceOnUse">
<stop stop-color="#3AB4E6"/>
<stop offset="1" stop-color="#004996"/>
</linearGradient>
<linearGradient id="paint1_linear_0_163" x1="6.79333" y1="33.2997" x2="9.66" y2="30.3597" gradientUnits="userSpaceOnUse">
<stop stop-color="#F08504"/>
<stop offset="1" stop-color="#E5322D"/>
</linearGradient>
<linearGradient id="paint2_linear_0_163" x1="7.02709" y1="6.50014" x2="9.43375" y2="8.90681" gradientUnits="userSpaceOnUse">
<stop stop-color="#F08504"/>
<stop offset="1" stop-color="#E5322D"/>
</linearGradient>
<linearGradient id="paint3_linear_0_163" x1="20.0466" y1="1.92677" x2="20.0466" y2="8.13344" gradientUnits="userSpaceOnUse">
<stop stop-color="#E53282"/>
<stop offset="1" stop-color="#851D7B"/>
</linearGradient>
<linearGradient id="paint4_linear_0_163" x1="20.0541" y1="31.2867" x2="20.0541" y2="38.7267" gradientUnits="userSpaceOnUse">
<stop stop-color="#851D7B"/>
<stop offset="1" stop-color="#E53282"/>
</linearGradient>
<radialGradient id="paint5_radial_0_163" cx="0" cy="0" r="1" gradientUnits="userSpaceOnUse" gradientTransform="translate(20.0535 19.7132) scale(10.18 10.18)">
<stop stop-color="#97BE11"/>
<stop offset="0.16" stop-color="#92BC12"/>
<stop offset="0.36" stop-color="#82B516"/>
<stop offset="0.58" stop-color="#69AB1C"/>
<stop offset="0.82" stop-color="#459C25"/>
<stop offset="1" stop-color="#258F2D"/>
</radialGradient>
<linearGradient id="paint6_linear_0_163" x1="30.4807" y1="9.28686" x2="33.5807" y2="6.9602" gradientUnits="userSpaceOnUse">
<stop stop-color="#E5322D"/>
<stop offset="1" stop-color="#F08504"/>
</linearGradient>
<linearGradient id="paint7_linear_0_163" x1="30.7394" y1="30.3803" x2="33.6861" y2="32.8603" gradientUnits="userSpaceOnUse">
<stop stop-color="#E5322D"/>
<stop offset="1" stop-color="#F08504"/>
</linearGradient>
<linearGradient id="paint8_linear_0_163" x1="30.2804" y1="19.6534" x2="38.7671" y2="19.6534" gradientUnits="userSpaceOnUse">
<stop stop-color="#004996"/>
<stop offset="1" stop-color="#3AB4E6"/>
</linearGradient>
</defs>
</svg>
