<svg width="40" height="40" viewBox="0 0 40 40" fill="none" xmlns="http://www.w3.org/2000/svg">
<path d="M36.9512 14.2245C36.9343 13.8084 36.8938 13.3936 36.83 12.9821C36.7557 12.5465 36.6565 12.1155 36.533 11.6912C35.9175 9.81874 34.8809 8.11238 33.5027 6.70328L33.3815 6.59419V6.55782C32.0136 5.2379 30.3519 4.26163 28.533 3.70934C28.1106 3.58653 27.6816 3.48739 27.2482 3.41238C26.8471 3.34517 26.4423 3.30266 26.0361 3.2851C25.2865 3.25627 24.5364 3.32761 23.8057 3.49722C23.1806 3.64006 22.5815 3.87928 22.03 4.20631C21.5542 4.47793 21.1313 4.8331 20.7815 5.2548C20.3424 5.77632 20.0459 6.40274 19.9209 7.07298V9.12752C20.2137 8.35528 20.7075 7.67528 21.3512 7.15783C21.7195 6.85052 22.1271 6.59371 22.5633 6.39419C23.0552 6.17825 23.5724 6.02552 24.1027 5.93965C24.7042 5.84741 25.3146 5.82707 25.9209 5.87904C26.5866 5.94398 27.2431 6.08219 27.8785 6.29116C29.2924 6.77555 30.5774 7.57558 31.6361 8.63056C32.6921 9.6907 33.4923 10.9779 33.9754 12.3942C34.1854 13.0293 34.3237 13.6859 34.3876 14.3518C34.44 14.9581 34.4197 15.5685 34.327 16.1699C34.2448 16.7011 34.0919 17.2188 33.8724 17.7093C33.6763 18.146 33.4215 18.5539 33.1148 18.9215C32.5784 19.5591 31.8818 20.0423 31.0967 20.3215H33.1512C33.8214 20.1965 34.4479 19.9 34.9694 19.4608C35.3871 19.1175 35.7384 18.7005 36.0057 18.2305C36.3343 17.6776 36.5736 17.0762 36.7148 16.4487C36.8953 15.7217 36.9748 14.9732 36.9512 14.2245Z" fill="url(#paint0_linear_0_29)"/>
<path d="M32.7882 17.6005C33.0597 17.1714 33.264 16.7034 33.3942 16.2126C33.5153 15.6737 33.5723 15.1224 33.5639 14.5702C33.5323 13.9546 33.4306 13.3446 33.2609 12.752C33.0667 12.0992 32.7897 11.4739 32.4367 10.8914C32.0475 10.2753 31.5989 9.69876 31.0973 9.17019L31.0124 9.09745L30.873 8.94594C30.4034 8.515 29.8894 8.1351 29.3397 7.81261C28.7693 7.46521 28.1587 7.18843 27.5215 6.98836C26.9289 6.81868 26.3189 6.71702 25.7033 6.68533C25.1492 6.68005 24.5963 6.73697 24.0548 6.85503C23.5654 6.98913 23.098 7.19326 22.667 7.46109C22.2893 7.69974 21.9569 8.00342 21.6851 8.35806C21.1997 9.00933 20.9172 9.78937 20.873 10.6005C20.8516 11.0048 20.8638 11.4103 20.9094 11.8126C21.1349 11.1839 21.5166 10.6229 22.0185 10.1823C22.5954 9.71007 23.2879 9.40043 24.0245 9.28533C24.2245 9.25503 24.4306 9.23078 24.6306 9.21866C24.8446 9.20681 25.059 9.20681 25.273 9.21866C25.4912 9.21866 25.7154 9.26715 25.9397 9.30958C26.1639 9.352 26.3882 9.42474 26.6185 9.49746C27.5798 9.8213 28.4545 10.3602 29.1761 11.0732C29.8831 11.8055 30.4155 12.6881 30.7336 13.655C30.8055 13.8761 30.8662 14.1006 30.9154 14.3278C30.9606 14.5497 30.991 14.7745 31.0064 15.0005C31.0064 15.2187 31.0064 15.4308 31.0064 15.6429C31.0064 15.855 30.9639 16.0611 30.9336 16.249C30.8223 16.9867 30.5122 17.6802 30.0367 18.255C29.5988 18.76 29.0369 19.1423 28.4064 19.3641C28.8085 19.4128 29.2142 19.4249 29.6185 19.4005C30.4296 19.3614 31.2105 19.0807 31.8609 18.5944C32.2253 18.3193 32.539 17.983 32.7882 17.6005Z" fill="url(#paint1_linear_0_29)"/>
<path d="M29.5573 17.4668C29.7864 17.1538 29.9587 16.803 30.0663 16.4304C30.178 16.057 30.2311 15.6686 30.2239 15.2789C30.2294 14.8527 30.1722 14.4279 30.0542 14.0183C29.7922 13.1054 29.3069 12.2723 28.6421 11.5941C27.9658 10.9268 27.1319 10.441 26.2179 10.1819C25.8077 10.0665 25.3833 10.0094 24.9573 10.0122C24.5692 10.0066 24.1827 10.0618 23.8118 10.1759C23.4391 10.2852 23.0869 10.4552 22.7694 10.6789C22.4765 10.8995 22.2208 11.1655 22.0118 11.4668C21.6363 12.0352 21.3958 12.682 21.3088 13.3577C21.2618 13.6972 21.2355 14.0392 21.23 14.3819C21.4293 13.9208 21.7247 13.5075 22.0966 13.1698C22.4856 12.8364 22.9526 12.6071 23.4542 12.5031C24.0396 12.4027 24.6405 12.444 25.2066 12.6237C25.7727 12.8034 26.2875 13.1162 26.7078 13.5359C27.1281 13.9556 27.4416 14.4699 27.6221 15.0358C27.8026 15.6016 27.8448 16.2025 27.7451 16.788C27.638 17.2885 27.409 17.7548 27.0785 18.1456C26.7435 18.5205 26.3295 18.8165 25.8663 19.0122C26.2092 19.0097 26.5514 18.9833 26.8906 18.9334C27.5665 18.8474 28.2135 18.6069 28.7815 18.2304C29.0803 18.0202 29.3423 17.7622 29.5573 17.4668Z" fill="url(#paint2_linear_0_29)"/>
<path d="M26.8722 17.0852C27.0636 16.5891 27.1078 16.0482 26.9995 15.5276C26.9316 15.256 26.8361 14.992 26.7146 14.7397C26.5517 14.4991 26.3671 14.2739 26.1631 14.067V14.0367L25.9328 13.8488C25.7876 13.7303 25.6336 13.6229 25.4722 13.5276C25.2208 13.4026 24.9567 13.305 24.6843 13.2367C24.1295 13.1167 23.5509 13.1772 23.0329 13.4094C22.515 13.6417 22.0849 14.0335 21.8055 14.5276C21.5278 15.0141 21.3236 15.539 21.1995 16.0852C21.1268 16.364 21.0722 16.6428 21.0298 16.9034C21.1839 16.5928 21.3887 16.3101 21.6358 16.067C21.873 15.8428 22.1564 15.6731 22.4661 15.57C22.7714 15.4775 23.0955 15.4668 23.4062 15.5392C23.7168 15.6115 24.0029 15.7643 24.2358 15.9822C24.4548 16.2145 24.6087 16.5003 24.6821 16.811C24.7555 17.1216 24.7458 17.4461 24.654 17.7519C24.5477 18.0601 24.3785 18.3428 24.1571 18.5822C23.9088 18.826 23.6247 19.0303 23.3146 19.1882C23.5813 19.1397 23.854 19.0852 24.1328 19.0185C24.6798 18.897 25.2051 18.6926 25.6904 18.4125C26.223 18.1163 26.6395 17.6484 26.8722 17.0852Z" fill="url(#paint3_linear_0_29)"/>
<path d="M19.0358 5.24889C18.686 4.8272 18.2631 4.47201 17.7873 4.2004C17.2341 3.87234 16.6328 3.63307 16.0055 3.49131C15.2769 3.32166 14.5288 3.25032 13.7812 3.27919C13.375 3.29675 12.9702 3.33925 12.5691 3.40646C12.1338 3.48212 11.7029 3.58125 11.2782 3.70343C9.39185 4.27657 7.67546 5.30498 6.28034 6.69799C4.88522 8.09099 3.85421 9.80583 3.27821 11.6913C3.15472 12.1156 3.05556 12.5466 2.98124 12.9822C2.91146 13.393 2.87095 13.8082 2.86003 14.2246C2.82546 14.9724 2.89687 15.7212 3.07215 16.4489C3.21408 17.0752 3.45117 17.6762 3.77518 18.2307C4.04685 18.7047 4.40207 19.1256 4.82367 19.4731C5.34564 19.9116 5.97187 20.208 6.64185 20.3337H8.69639C7.92321 20.0395 7.24158 19.5461 6.72064 18.9034C6.4119 18.5374 6.15682 18.1292 5.96306 17.6913C5.74079 17.2018 5.5878 16.6837 5.50852 16.1519C5.41582 15.5504 5.39548 14.94 5.44791 14.3337C5.50675 13.6676 5.64303 13.0107 5.85397 12.3762C6.35708 10.9489 7.17056 9.65107 8.23579 8.57616C9.28944 7.54123 10.5607 6.75445 11.957 6.27313C12.5923 6.06373 13.2488 5.92551 13.9146 5.86101C14.5209 5.80915 15.1312 5.8295 15.7328 5.92162C16.263 6.00749 16.7803 6.16022 17.2722 6.37616C17.7084 6.57568 18.116 6.83249 18.4843 7.1398C19.1263 7.65887 19.6197 8.33837 19.9146 9.10949V7.05495C19.7824 6.3872 19.4796 5.76502 19.0358 5.24889Z" fill="url(#paint4_linear_0_29)"/>
<path d="M18.9517 10.5881C18.9126 9.77698 18.6319 8.99608 18.1456 8.34568C17.8739 7.99104 17.5415 7.68735 17.1638 7.4487C16.7328 7.18087 16.2653 6.97674 15.7759 6.84264C15.2345 6.72458 14.6816 6.66766 14.1274 6.67294C13.5118 6.70415 12.9018 6.80583 12.3093 6.97597C11.6574 7.17281 11.0324 7.44967 10.4487 7.80022C9.82767 8.16558 9.25197 8.60295 8.7335 9.10325C8.22313 9.62649 7.77379 10.2059 7.39411 10.8305C7.04539 11.4144 6.77055 12.0394 6.57593 12.6911C6.40335 13.2831 6.30163 13.8934 6.2729 14.5093C6.26156 15.0617 6.31856 15.6133 6.44259 16.1517C6.5728 16.6425 6.77717 17.1105 7.04866 17.5396C7.29111 17.918 7.59653 18.2521 7.95168 18.5275C8.60101 19.0157 9.38255 19.2967 10.1941 19.3335C10.5984 19.358 11.0041 19.3458 11.4062 19.2972C10.7749 19.0769 10.2127 18.6944 9.77593 18.1881C9.29798 17.6147 8.98759 16.9206 8.87896 16.182C8.84232 15.9817 8.81803 15.7793 8.80623 15.576C8.80623 15.3639 8.80623 15.1517 8.80623 14.9335C8.82256 14.708 8.85088 14.4834 8.89108 14.2608C8.94562 14.0366 9.00623 13.8123 9.07896 13.5881C9.40662 12.6254 9.94733 11.7491 10.6608 11.0245C11.3823 10.3115 12.257 9.77254 13.2184 9.4487C13.4487 9.37598 13.6729 9.31537 13.8911 9.26083C14.1093 9.20628 14.3456 9.19416 14.5638 9.16992C14.7778 9.15798 14.9923 9.15798 15.2062 9.16992C15.4184 9.16992 15.6244 9.20628 15.8123 9.23659C16.5471 9.35158 17.2377 9.6613 17.8123 10.1336C18.3179 10.5709 18.7003 11.1329 18.9214 11.7639C18.9686 11.3738 18.9788 10.9801 18.9517 10.5881Z" fill="url(#paint5_linear_0_29)"/>
<path d="M12.0542 16.782C11.9549 16.1971 11.9971 15.5969 12.1773 15.0316C12.3574 14.4663 12.6704 13.9524 13.0899 13.5328C13.5095 13.1133 14.0234 12.8004 14.5887 12.6202C15.1539 12.44 15.7542 12.3978 16.3391 12.4972C16.8428 12.6001 17.3121 12.8295 17.7027 13.1638C18.0746 13.5015 18.3701 13.9148 18.5694 14.3759C18.5617 14.0331 18.5334 13.6911 18.4846 13.3517C18.4002 12.6753 18.1595 12.0279 17.7815 11.4608C17.5747 11.1597 17.321 10.8937 17.03 10.6729C16.7125 10.4492 16.3603 10.2792 15.9876 10.1699C15.6145 10.0563 15.226 10.0011 14.8361 10.0063C14.412 10.0038 13.9897 10.0609 13.5815 10.1759C12.6674 10.435 11.8336 10.9208 11.1573 11.5881C10.4909 12.2661 10.0035 13.0991 9.7391 14.0123C9.62742 14.4232 9.57036 14.8471 9.5694 15.2729C9.5672 15.6627 9.62234 16.0507 9.73304 16.4244C9.84069 16.7971 10.013 17.1478 10.2421 17.4608C10.4596 17.7564 10.7261 18.0126 11.03 18.2184C11.598 18.5948 12.245 18.8354 12.9209 18.9214C13.2601 18.9713 13.6023 18.9976 13.9452 19.0002C13.482 18.8045 13.068 18.5085 12.733 18.1335C12.3962 17.7476 12.1626 17.2826 12.0542 16.782Z" fill="url(#paint6_linear_0_29)"/>
<path d="M18.5756 16.0793C18.4516 15.533 18.2473 15.0082 17.9696 14.5217C17.6902 14.0276 17.2601 13.6358 16.7422 13.4035C16.2242 13.1713 15.6456 13.1107 15.0908 13.2308C14.5459 13.3465 14.0454 13.6157 13.6484 14.0065C13.4494 14.2204 13.2728 14.4539 13.1211 14.7035C12.9969 14.9547 12.9014 15.2189 12.8363 15.4914C12.7279 16.012 12.7721 16.5528 12.9635 17.049C13.1918 17.6062 13.6019 18.0697 14.1272 18.3641C14.6108 18.6432 15.1339 18.8475 15.6787 18.9702C15.9635 19.0368 16.2363 19.0914 16.5029 19.1399C16.1929 18.982 15.9088 18.7776 15.6605 18.5338C15.4391 18.2945 15.2698 18.0117 15.1635 17.7035C15.0717 17.3978 15.0621 17.0733 15.1355 16.7626C15.2089 16.452 15.3628 16.1661 15.5817 15.9338C15.8146 15.716 16.1008 15.5632 16.4114 15.4908C16.722 15.4185 17.0462 15.4291 17.3514 15.5217C17.6611 15.6248 17.9445 15.7944 18.1817 16.0187C18.427 16.2634 18.6316 16.5458 18.7878 16.855C18.7029 16.6369 18.6423 16.3581 18.5756 16.0793Z" fill="url(#paint7_linear_0_29)"/>
<path d="M21.6492 32.3276C21.9242 32.6792 22.256 32.9824 22.631 33.2246C23.062 33.4924 23.5295 33.6965 24.0189 33.8306C24.5603 33.9487 25.1133 34.0056 25.6674 34.0003C26.2835 33.9694 26.8938 33.8656 27.4855 33.6912C28.1367 33.4948 28.7599 33.2158 29.3401 32.8609C29.8829 32.5318 30.3906 32.148 30.8552 31.7155C30.8977 31.6791 30.9401 31.6245 30.9825 31.5821L31.0613 31.5155C31.5626 30.9865 32.0111 30.4101 32.4007 29.7943C32.7537 29.2118 33.0307 28.5865 33.2249 27.9336C33.3942 27.3409 33.4958 26.731 33.528 26.1155C33.5366 25.5632 33.4797 25.0119 33.3583 24.473C33.2281 23.9823 33.0237 23.5142 32.7522 23.0852C32.5098 22.7068 32.2043 22.3727 31.8492 22.0973C31.1988 21.611 30.4179 21.3303 29.6068 21.2912C29.2025 21.2668 28.7968 21.279 28.3946 21.3276C29.0252 21.5494 29.587 21.9317 30.0249 22.4367C30.4995 23.0098 30.8095 23.7011 30.9219 24.4367C30.9219 24.6367 30.9825 24.8427 30.9946 25.0427C31.0068 25.2427 30.9946 25.467 30.9946 25.6852C30.9839 25.919 30.9576 26.1518 30.9159 26.3821C30.8666 26.6093 30.8059 26.8338 30.734 27.0548C30.4061 28.0156 29.8654 28.8899 29.1522 29.6124C28.4329 30.3297 27.5576 30.871 26.5946 31.1943C26.3643 31.267 26.1401 31.3276 25.9158 31.3821C25.6916 31.4367 25.4674 31.4488 25.2492 31.473C25.031 31.4973 24.8128 31.473 24.6068 31.473C24.4007 31.473 24.1886 31.4367 24.0007 31.4064C23.2641 31.2913 22.5716 30.9816 21.9946 30.5094C21.4808 30.0707 21.0884 29.5072 20.8552 28.873C20.8096 29.2754 20.7974 29.6808 20.8189 30.0852C20.8683 30.8982 21.1572 31.6784 21.6492 32.3276Z" fill="url(#paint8_linear_0_29)"/>
<path d="M21.8308 26.1519C22.1102 26.646 22.5403 27.0379 23.0583 27.2701C23.5762 27.5024 24.1548 27.5629 24.7096 27.4428C24.982 27.3745 25.2461 27.277 25.4975 27.1519C25.6589 27.0566 25.8129 26.9492 25.9581 26.8307L26.0672 26.7398L26.1945 26.6307C26.396 26.4205 26.571 26.1865 26.7157 25.9337C26.8372 25.6815 26.9326 25.4175 27.0005 25.1459C27.1092 24.6253 27.065 24.0843 26.8733 23.5883C26.6434 23.0302 26.2311 22.5665 25.7036 22.2731C25.2183 21.993 24.693 21.7886 24.146 21.6671C23.8672 21.6004 23.5945 21.5459 23.3278 21.4974C23.6391 21.6532 23.9235 21.8578 24.1702 22.1034C24.3903 22.3415 24.5594 22.622 24.6672 22.9277C24.7601 23.2343 24.7704 23.56 24.697 23.8718C24.6235 24.1836 24.469 24.4705 24.249 24.7034C24.0161 24.9213 23.73 25.0741 23.4194 25.1464C23.1087 25.2188 22.7845 25.2081 22.4793 25.1156C22.1706 25.0102 21.8877 24.8409 21.649 24.6186C21.4019 24.3755 21.197 24.0928 21.043 23.7822C21.0854 24.0428 21.1399 24.3216 21.2127 24.6004C21.3422 25.1449 21.5505 25.6675 21.8308 26.1519Z" fill="url(#paint9_linear_0_29)"/>
<path d="M36.74 24.2247C36.5921 23.5955 36.3446 22.9939 36.0067 22.4429C35.7369 21.9675 35.3814 21.5463 34.9582 21.2005C34.437 20.7596 33.8107 20.461 33.14 20.3338H31.0976C31.8685 20.6322 32.5491 21.125 33.0733 21.7641C33.3773 22.1336 33.632 22.5411 33.8309 22.9762C34.0496 23.4692 34.2024 23.9888 34.2855 24.5217C34.3781 25.1232 34.3985 25.7336 34.3461 26.3399C34.2822 27.0057 34.1439 27.6623 33.9339 28.2974C33.4508 29.7137 32.6506 31.0009 31.5945 32.0611C30.5359 33.1161 29.2509 33.9161 27.837 34.4005C27.2016 34.6095 26.5451 34.7477 25.8794 34.8126C25.273 34.8615 24.663 34.8412 24.0612 34.752C23.5309 34.6661 23.0137 34.5134 22.5218 34.2974C22.0856 34.0979 21.678 33.8411 21.3097 33.5338C20.6658 33.0141 20.1721 32.3321 19.8794 31.5581V33.6187C20.0057 34.2885 20.302 34.9146 20.74 35.4368C21.0898 35.8585 21.5127 36.2137 21.9885 36.4853C22.5413 36.8099 23.14 37.0489 23.7642 37.1944C24.4947 37.3649 25.2452 37.4342 25.9945 37.4005C26.4009 37.3879 26.8059 37.3474 27.2067 37.2793C27.6401 37.2043 28.0691 37.1051 28.4915 36.9823C30.3609 36.4132 32.0628 35.3958 33.4491 34.0187C35.186 32.3282 36.3406 30.1294 36.7461 27.7399C36.8099 27.3283 36.8503 26.9135 36.8673 26.4974C36.9312 25.7376 36.8884 24.9726 36.74 24.2247Z" fill="url(#paint10_linear_0_29)"/>
<path d="M27.7393 23.8914C27.8433 24.4787 27.8045 25.0824 27.626 25.6515C27.4474 26.2207 27.1345 26.7384 26.7137 27.1611C26.2928 27.5837 25.7764 27.8988 25.208 28.0797C24.6397 28.2606 24.0361 28.3021 23.4484 28.2005C22.9474 28.0948 22.4807 27.8657 22.0908 27.5338C21.7189 27.1961 21.4234 26.7828 21.2241 26.3217C21.2297 26.6644 21.256 27.0064 21.3029 27.3459C21.389 28.02 21.6296 28.665 22.0059 29.2308C22.2117 29.5347 22.4679 29.8012 22.7635 30.0187C23.0794 30.2466 23.432 30.4188 23.8059 30.5278C24.1769 30.6418 24.5634 30.697 24.9514 30.6914C25.3775 30.6943 25.8018 30.6371 26.212 30.5217C27.1261 30.2626 27.9599 29.7769 28.6362 29.1096C29.3011 28.4314 29.7864 27.5982 30.0484 26.6853C30.1659 26.2756 30.2231 25.851 30.2181 25.4247C30.2253 25.0351 30.1721 24.6466 30.0605 24.2732C29.9528 23.9006 29.7805 23.5498 29.5514 23.2368C29.334 22.9412 29.0675 22.6849 28.7635 22.4793C28.1956 22.1028 27.5485 21.8623 26.8726 21.7762C26.5334 21.7264 26.1912 21.7 25.8484 21.6974C26.31 21.8931 26.7236 22.1868 27.0605 22.5581C27.3901 22.9418 27.6229 23.3991 27.7393 23.8914Z" fill="url(#paint11_linear_0_29)"/>
<path d="M18.4661 33.5092C18.0978 33.8165 17.6902 34.0733 17.254 34.2729C16.7621 34.4888 16.2449 34.6415 15.7146 34.7274C15.1128 34.8164 14.5028 34.8367 13.8964 34.788C13.2306 34.7235 12.5741 34.5853 11.9388 34.3759C10.5238 33.8902 9.23704 33.0904 8.17518 32.0365C7.12324 30.9731 6.32374 29.6868 5.83579 28.2729C5.62485 27.6383 5.48857 26.9814 5.42973 26.3153C5.37729 25.709 5.39764 25.0986 5.49034 24.4971C5.57052 23.9636 5.72346 23.4436 5.94488 22.9517C6.14155 22.5153 6.39639 22.1075 6.70246 21.7395C7.23324 21.1023 7.92027 20.6136 8.69639 20.3214H6.64185C5.97144 20.4494 5.34529 20.7478 4.82367 21.188C4.40207 21.5355 4.04685 21.9564 3.77518 22.4304C3.45022 22.9845 3.21306 23.5856 3.07215 24.2123C2.89687 24.94 2.82546 25.6888 2.86003 26.4365C2.87095 26.853 2.91146 27.2682 2.98124 27.6789C3.38675 30.0685 4.54133 32.2673 6.27821 33.9577C7.66004 35.3287 9.35554 36.3419 11.2176 36.9092C11.6422 37.0314 12.0732 37.1305 12.5085 37.2062C12.9093 37.2743 13.3143 37.3148 13.7206 37.3274C14.468 37.3612 15.2164 37.2919 15.9449 37.1214C16.5714 36.9769 17.1722 36.7378 17.7267 36.4123C18.2192 36.1648 18.6627 35.8301 19.0358 35.4244C19.4738 34.9021 19.7701 34.276 19.8964 33.6062V31.5456C19.5998 32.3141 19.1066 32.9912 18.4661 33.5092Z" fill="url(#paint12_linear_0_29)"/>
<path d="M7.00577 23.0732C6.73429 23.5023 6.52991 23.9703 6.39971 24.4611C6.27531 24.9994 6.2183 25.5511 6.23001 26.1035C6.2592 26.7194 6.36091 27.3297 6.53304 27.9217C6.72767 28.5734 7.0025 29.1984 7.35123 29.7823C7.74821 30.4118 8.21145 30.9969 8.73304 31.5278L8.76941 31.5702C9.27141 32.0621 9.83102 32.4914 10.4361 32.849C11.0194 33.1959 11.6446 33.4668 12.2967 33.655C12.8883 33.83 13.4987 33.9337 14.1149 33.9641C14.669 33.9694 15.2219 33.9125 15.7633 33.7944C16.2528 33.6603 16.7202 33.4562 17.1512 33.1884C17.5262 32.9462 17.858 32.643 18.133 32.2914C18.6193 31.641 18.9 30.8601 18.9391 30.049C18.9667 29.6447 18.9545 29.2387 18.9027 28.8369C18.6959 29.4776 18.3238 30.0524 17.824 30.5035C17.2494 30.9758 16.5588 31.2855 15.824 31.4005C15.624 31.4308 15.4179 31.4551 15.2179 31.4672C15.0179 31.4793 14.7937 31.4672 14.5755 31.4672C14.3573 31.4672 14.127 31.4187 13.9027 31.3763C13.6785 31.3338 13.4603 31.2611 13.23 31.1884C12.267 30.8651 11.3917 30.3238 10.6724 29.6066C9.95926 28.8841 9.41853 28.0098 9.09062 27.049C9.01789 26.8247 8.95729 26.6005 8.90274 26.3763C8.86292 26.1536 8.8346 25.9291 8.81789 25.7035C8.81789 25.4854 8.81789 25.2732 8.81789 25.0611C8.82995 24.8578 8.85423 24.6554 8.89062 24.4551C9.00032 23.7187 9.31065 23.0267 9.78759 22.455C10.2244 21.9488 10.7866 21.5663 11.4179 21.346C11.0158 21.2973 10.6101 21.2852 10.2058 21.3096C9.39421 21.3465 8.61267 21.6274 7.96335 22.1156C7.59127 22.3772 7.2673 22.7012 7.00577 23.0732Z" fill="url(#paint13_linear_0_29)"/>
<path d="M10.2358 23.2062C10.0067 23.5192 9.83434 23.87 9.72669 24.2426C9.61599 24.6163 9.56085 25.0043 9.56305 25.3941C9.56401 25.8199 9.62107 26.2438 9.73275 26.6547C9.99718 27.5679 10.4845 28.401 11.1509 29.079C11.8272 29.7463 12.6611 30.232 13.5752 30.4911C13.9833 30.6061 14.4057 30.6632 14.8297 30.6608C15.2197 30.6659 15.6081 30.6107 15.9812 30.4971C16.3552 30.3882 16.7078 30.216 17.0237 29.9881C17.3175 29.7705 17.5717 29.5039 17.7752 29.2002C18.1541 28.6357 18.395 27.9901 18.4782 27.3153C18.527 26.9759 18.5554 26.6339 18.5631 26.2911C18.3638 26.7522 18.0683 27.1655 17.6964 27.5032C17.3049 27.8362 16.836 28.0654 16.3327 28.1699C15.7478 28.2692 15.1476 28.227 14.5823 28.0469C14.017 27.8667 13.5031 27.5537 13.0836 27.1342C12.664 26.7146 12.3511 26.2007 12.1709 25.6355C11.9907 25.0702 11.9485 24.4699 12.0479 23.885C12.1536 23.3822 12.3827 22.9136 12.7146 22.5214C13.0515 22.1501 13.4651 21.8564 13.9267 21.6608C13.5839 21.6633 13.2416 21.6897 12.9024 21.7396C12.2265 21.8256 11.5795 22.0661 11.0115 22.4426C10.7101 22.6495 10.4474 22.908 10.2358 23.2062Z" fill="url(#paint14_linear_0_29)"/>
<path d="M12.9207 23.5883C12.7242 24.0917 12.6799 24.6417 12.7934 25.1701C12.8586 25.4426 12.9541 25.7068 13.0783 25.958C13.2314 26.2066 13.408 26.44 13.6055 26.655V26.6853C13.8029 26.8645 14.0182 27.0229 14.248 27.158C14.4989 27.284 14.7632 27.3816 15.0359 27.4489C15.5906 27.569 16.1693 27.5084 16.6872 27.2762C17.2052 27.0439 17.6353 26.6521 17.9146 26.158C18.1913 25.671 18.3955 25.1463 18.5207 24.6004C18.5874 24.3216 18.648 24.0428 18.6904 23.7822C18.5342 24.0915 18.3296 24.3738 18.0843 24.6186C17.8457 24.8409 17.5627 25.0102 17.254 25.1156C16.9488 25.2081 16.6246 25.2188 16.314 25.1464C16.0034 25.0741 15.7173 24.9213 15.4843 24.7034C15.2644 24.4705 15.1098 24.1836 15.0364 23.8718C14.963 23.56 14.9732 23.2343 15.0662 22.9277C15.174 22.622 15.3431 22.3415 15.5631 22.1034C15.8098 21.8578 16.0942 21.6532 16.4055 21.4974C16.1389 21.5459 15.8662 21.6004 15.5813 21.6671C15.0365 21.7897 14.5135 21.9941 14.0298 22.2731C13.5237 22.5755 13.1333 23.0385 12.9207 23.5883Z" fill="url(#paint15_linear_0_29)"/>
<defs>
<linearGradient id="paint0_linear_0_29" x1="19.8967" y1="11.8063" x2="36.9573" y2="11.8063" gradientUnits="userSpaceOnUse">
<stop stop-color="#E53282"/>
<stop offset="1" stop-color="#851D7B"/>
</linearGradient>
<linearGradient id="paint1_linear_0_29" x1="20.8245" y1="13.049" x2="33.5458" y2="13.049" gradientUnits="userSpaceOnUse">
<stop stop-color="#E53282"/>
<stop offset="1" stop-color="#851D7B"/>
</linearGradient>
<linearGradient id="paint2_linear_0_29" x1="21.2239" y1="14.5031" x2="30.23" y2="14.5031" gradientUnits="userSpaceOnUse">
<stop stop-color="#E53282"/>
<stop offset="1" stop-color="#851D7B"/>
</linearGradient>
<linearGradient id="paint3_linear_0_29" x1="21.048" y1="16.1822" x2="27.054" y2="16.1822" gradientUnits="userSpaceOnUse">
<stop stop-color="#E53282"/>
<stop offset="1" stop-color="#851D7B"/>
</linearGradient>
<linearGradient id="paint4_linear_0_29" x1="2.82973" y1="11.8065" x2="19.8964" y2="11.8065" gradientUnits="userSpaceOnUse">
<stop stop-color="#F08504"/>
<stop offset="1" stop-color="#E5322D"/>
</linearGradient>
<linearGradient id="paint5_linear_0_29" x1="6.24865" y1="13.0487" x2="18.9699" y2="13.0487" gradientUnits="userSpaceOnUse">
<stop stop-color="#F08504"/>
<stop offset="1" stop-color="#E5322D"/>
</linearGradient>
<linearGradient id="paint6_linear_0_29" x1="9.56334" y1="14.5032" x2="18.5694" y2="14.5032" gradientUnits="userSpaceOnUse">
<stop stop-color="#F08504"/>
<stop offset="1" stop-color="#E5322D"/>
</linearGradient>
<linearGradient id="paint7_linear_0_29" x1="12.7332" y1="16.1823" x2="18.7453" y2="16.1823" gradientUnits="userSpaceOnUse">
<stop stop-color="#F08504"/>
<stop offset="1" stop-color="#E5322D"/>
</linearGradient>
<linearGradient id="paint8_linear_0_29" x1="20.9159" y1="34.6549" x2="35.0855" y2="21.473" gradientUnits="userSpaceOnUse">
<stop stop-color="#97BE11"/>
<stop offset="1" stop-color="#258F2D"/>
</linearGradient>
<linearGradient id="paint9_linear_0_29" x1="17.4127" y1="30.8974" x2="31.5884" y2="17.7156" gradientUnits="userSpaceOnUse">
<stop stop-color="#97BE11"/>
<stop offset="1" stop-color="#258F2D"/>
</linearGradient>
<linearGradient id="paint10_linear_0_29" x1="22.4612" y1="36.3217" x2="36.637" y2="23.1399" gradientUnits="userSpaceOnUse">
<stop stop-color="#97BE11"/>
<stop offset="1" stop-color="#258F2D"/>
</linearGradient>
<linearGradient id="paint11_linear_0_29" x1="19.2241" y1="32.8368" x2="33.3938" y2="19.6611" gradientUnits="userSpaceOnUse">
<stop stop-color="#97BE11"/>
<stop offset="1" stop-color="#258F2D"/>
</linearGradient>
<linearGradient id="paint12_linear_0_29" x1="15.7873" y1="35.9941" x2="5.01761" y2="23.2365" gradientUnits="userSpaceOnUse">
<stop stop-color="#3AB4E6"/>
<stop offset="1" stop-color="#004996"/>
</linearGradient>
<linearGradient id="paint13_linear_0_29" x1="17.4846" y1="34.5641" x2="6.7088" y2="21.8066" gradientUnits="userSpaceOnUse">
<stop stop-color="#3AB4E6"/>
<stop offset="1" stop-color="#004996"/>
</linearGradient>
<linearGradient id="paint14_linear_0_29" x1="19.3328" y1="33.0002" x2="8.56305" y2="20.2426" gradientUnits="userSpaceOnUse">
<stop stop-color="#3AB4E6"/>
<stop offset="1" stop-color="#004996"/>
</linearGradient>
<linearGradient id="paint15_linear_0_29" x1="21.3328" y1="31.3156" x2="10.5571" y2="18.558" gradientUnits="userSpaceOnUse">
<stop stop-color="#3AB4E6"/>
<stop offset="1" stop-color="#004996"/>
</linearGradient>
</defs>
</svg>
