<svg width="40" height="40" viewBox="0 0 40 40" fill="none" xmlns="http://www.w3.org/2000/svg">
<path d="M29.4631 25.4506C29.451 25.2681 29.428 25.0865 29.3943 24.9068L29.3568 24.6756C29.2886 24.2648 29.1904 23.8595 29.0631 23.4631L28.9944 23.2193C28.783 22.6382 28.541 22.0686 28.2693 21.5131L25.9193 24.8318C24.8884 26.3026 23.641 27.6091 22.2194 28.7068C21.0667 29.5917 19.7795 30.2859 18.4068 30.7631C16.5075 31.4691 14.448 31.6272 12.4631 31.2193C10.1947 30.7669 8.0886 29.716 6.36309 28.1756C4.77875 26.788 3.5015 25.085 2.61309 23.1756C2.52928 23.6714 2.48331 24.1728 2.47559 24.6756C2.48893 25.3034 2.54322 25.9298 2.63809 26.5506L2.6881 26.7631C2.79721 27.3621 2.95396 27.9515 3.15685 28.5256C3.38964 29.2034 3.68028 29.86 4.02559 30.4881C4.24434 30.8881 4.41935 31.1881 4.58185 31.4631C4.74435 31.7381 4.98185 32.0381 5.20685 32.3318C7.41284 35.2883 10.6879 37.2646 14.3318 37.8381C15.4999 38.0214 16.6866 38.055 17.8631 37.9381C19.3702 37.8694 20.8524 37.5285 22.2381 36.9318L22.4381 36.8318C22.9304 36.5933 23.4083 36.3261 23.8693 36.0318C25.6711 34.8905 27.153 33.3097 28.1756 31.4381C29.0224 29.859 29.4749 28.0985 29.4943 26.3068C29.4881 26.0006 29.4818 25.7256 29.4631 25.4506Z" fill="url(#paint0_linear_0_102)"/>
<path d="M37.1121 20.2378C37.6934 22.1515 37.8617 24.1668 37.6059 26.1503C37.2301 28.7499 36.1493 31.1968 34.4809 33.2253C32.822 35.2844 30.6138 36.8316 28.1121 37.6878C26.6 38.2019 24.9927 38.3748 23.4059 38.1941C25.4817 37.1694 27.2771 35.655 28.6371 33.7816C29.898 32.038 30.7134 30.0125 31.0121 27.8816C31.2207 26.3522 31.1079 24.7961 30.6809 23.3128C29.9707 20.8347 28.6539 18.5728 26.8496 16.7316C26.1936 15.9895 25.4626 15.3171 24.6684 14.7253L24.5309 14.6128L24.3121 14.4753C24.2167 14.4185 24.1248 14.3559 24.0371 14.2878L23.7371 14.1003C23.6393 14.0488 23.5453 13.9904 23.4559 13.9253L23.3309 13.8503C23.2209 13.799 23.1144 13.7406 23.0121 13.6753C22.9112 13.6114 22.8069 13.553 22.6996 13.5003C22.6111 13.4629 22.5254 13.4191 22.4434 13.3691C22.3139 13.2891 22.1781 13.2201 22.0371 13.1628C21.4684 12.8816 20.8371 12.5941 20.1621 12.3066L20.2559 12.2378C20.4184 12.1503 20.5808 12.0503 20.7558 11.9378C20.9308 11.8253 21.1433 11.6941 21.3808 11.5816C23.0012 10.7198 24.8452 10.3711 26.6684 10.5816C28.8211 10.8522 30.8557 11.718 32.5434 13.0816C33.6138 13.9411 34.5418 14.9641 35.2934 16.1128C36.0992 17.3909 36.7121 18.7809 37.1121 20.2378Z" fill="url(#paint1_linear_0_102)"/>
<path d="M18.0371 11.8377C16.6266 12.9374 15.388 14.2414 14.3621 15.7065L12.0246 19.0065C11.7506 18.4584 11.5085 17.895 11.2996 17.319L11.2184 17.044C11.0924 16.6582 10.9963 16.2633 10.9308 15.8627L10.8996 15.6502C10.8684 15.4565 10.8371 15.2565 10.8184 15.0877C10.8184 14.819 10.8184 14.5377 10.7871 14.269C10.7893 13.3899 10.9005 12.5144 11.1184 11.6627C11.3429 10.7945 11.668 9.95553 12.0871 9.16273C13.0932 7.28489 14.5599 5.69344 16.3496 4.53773C18.4756 3.15041 20.9549 2.40206 23.4934 2.38148C26.469 2.35658 29.3771 3.26836 31.8059 4.98773C32.3059 5.34398 32.7996 5.76898 33.3434 6.23773C33.8432 6.72723 34.3148 7.24473 34.7559 7.78773L34.9371 8.03148C35.3259 8.52908 35.6729 9.05797 35.9746 9.61273C36.1621 9.93773 36.3309 10.2377 36.4934 10.5815C36.6559 10.9252 36.7309 11.144 36.8371 11.4315L36.9809 11.8065C37.0746 12.069 37.1621 12.3127 37.2246 12.5565C37.3121 12.9002 37.3934 13.244 37.4621 13.594C37.5903 14.2109 37.6573 14.8389 37.6621 15.469C37.6787 15.9376 37.6473 16.4067 37.5684 16.869C36.6467 14.9882 35.3441 13.3196 33.7433 11.969C31.9649 10.4732 29.8247 9.47104 27.5371 9.06273C25.5225 8.69516 23.4448 8.91204 21.5496 9.68773L21.3496 9.78148C20.9164 9.97437 20.4985 10.2 20.0996 10.4565L19.8434 10.6127L19.4371 10.8627C19.2184 11.019 19.0371 11.144 18.8808 11.2377C18.7059 11.3421 18.5388 11.4591 18.3809 11.5877C18.2849 11.6621 18.1847 11.731 18.0808 11.794L18.0371 11.8377Z" fill="url(#paint2_linear_0_102)"/>
<path d="M20.025 28.2189C19.6062 28.4314 19.1812 28.6376 18.775 28.8439L18.7 28.8751C17.0708 29.7147 15.2182 30.0187 13.4062 29.7439C11.3258 29.4498 9.36779 28.5844 7.74994 27.2439C5.93467 25.7268 4.54361 23.7651 3.71245 21.5501L3.67495 21.4376C3.6568 21.3866 3.63593 21.3365 3.61244 21.2876L3.36245 20.5064C3.34099 20.4118 3.30059 20.3225 3.2437 20.2439C2.53738 18.2393 2.36507 16.0853 2.7437 13.9939C3.18503 11.4564 4.29626 9.08289 5.96245 7.11888C7.63179 5.12446 9.82764 3.63891 12.2999 2.83138C13.768 2.34272 15.3252 2.18061 16.8625 2.35638C14.7888 3.38198 12.9972 4.89892 11.6437 6.77513C10.3911 8.51676 9.5823 10.5377 9.28746 12.6626C9.08294 14.1669 9.19361 15.6972 9.61245 17.1564C10.3598 19.5922 11.6653 21.82 13.425 23.6626C14.0598 24.4005 14.7652 25.0745 15.5312 25.6751C16.9314 26.6851 18.4384 27.5381 20.025 28.2189Z" fill="url(#paint3_linear_0_102)"/>
<defs>
<linearGradient id="paint0_linear_0_102" x1="28.2631" y1="24.5756" x2="1.73184" y2="33.8193" gradientUnits="userSpaceOnUse">
<stop stop-color="#004996"/>
<stop offset="1" stop-color="#3AB4E6"/>
</linearGradient>
<linearGradient id="paint1_linear_0_102" x1="24.7746" y1="11.9253" x2="32.8371" y2="37.3066" gradientUnits="userSpaceOnUse">
<stop stop-color="#851D7B"/>
<stop offset="1" stop-color="#E53282"/>
</linearGradient>
<linearGradient id="paint2_linear_0_102" x1="10.8059" y1="15.0127" x2="35.8496" y2="7.85648" gradientUnits="userSpaceOnUse">
<stop stop-color="#E5322D"/>
<stop offset="1" stop-color="#F08504"/>
</linearGradient>
<linearGradient id="paint3_linear_0_102" x1="18.3312" y1="27.9314" x2="6.09995" y2="3.77513" gradientUnits="userSpaceOnUse">
<stop stop-color="#258F2D"/>
<stop offset="1" stop-color="#97BE11"/>
</linearGradient>
</defs>
</svg>
