<svg width="60" height="60" viewBox="0 0 60 60" fill="none" xmlns="http://www.w3.org/2000/svg">
<rect width="60" height="60" rx="8" fill="white"/>
<path d="M20.9375 19.5312V16.0525C20.9375 14.668 22.0703 13.5352 23.4548 13.5352H36.5452C37.9298 13.5352 39.0625 14.668 39.0625 16.0525V19.5312" stroke="#309689" stroke-width="2" stroke-miterlimit="22.9256" stroke-linecap="round" stroke-linejoin="round"/>
<path d="M47.2656 30.7812V44.1211C47.2656 45.4099 46.2107 46.4648 44.9219 46.4648H15.0781C13.7893 46.4648 12.7344 45.4102 12.7344 44.1211V30.8594" stroke="#309689" stroke-width="2" stroke-miterlimit="22.9256" stroke-linecap="round" stroke-linejoin="round"/>
<path d="M26.875 34.7266C18.6102 34.254 11.1719 31.8906 11.1719 27.6365V22.0898C11.1719 20.799 12.2247 19.7461 13.5156 19.7461H46.4844C47.7752 19.7461 48.8281 20.7991 48.8281 22.0898V27.6365C48.8281 31.9173 41.2958 34.2835 32.9688 34.7352" stroke="#309689" stroke-width="2" stroke-miterlimit="22.9256" stroke-linecap="round" stroke-linejoin="round"/>
<path fill-rule="evenodd" clip-rule="evenodd" d="M27.1094 32.4023H32.8906V35.0977C32.8906 36.5801 31.6777 37.793 30.1953 37.793H29.8047C28.3223 37.793 27.1094 36.5801 27.1094 35.0977V32.4023Z" stroke="#309689" stroke-width="2" stroke-miterlimit="22.9256" stroke-linecap="round" stroke-linejoin="round"/>
</svg>
