<svg width="40" height="40" viewBox="0 0 40 40" fill="none" xmlns="http://www.w3.org/2000/svg">
<path d="M9.25318 27.7935C6.43129 26.6223 3.8296 24.9787 1.55984 22.9335C1.2182 20.7604 1.26334 18.5441 1.69318 16.3868C4.00323 14.3272 6.65084 12.6809 9.51984 11.5201C9.60512 11.6254 9.7012 11.7215 9.8065 11.8068C8.26732 16.9099 8.19111 22.3425 9.58651 27.4868C9.46307 27.5747 9.35109 27.6778 9.25318 27.7935Z" fill="url(#paint0_linear_0_148)"/>
<path d="M10.7733 30.9731C11.8339 33.5368 13.2647 35.9312 15.02 38.0797C11.9075 37.2089 9.073 35.5481 6.79168 33.2586C4.51037 30.9691 2.85973 28.1287 2 25.0131C4.07007 26.6555 6.3587 28.0017 8.8 29.0131C8.79632 29.0284 8.79632 29.0444 8.8 29.0597C8.8 29.5725 9.00369 30.0642 9.36626 30.4268C9.72883 30.7894 10.2206 30.9931 10.7333 30.9931L10.7733 30.9731Z" fill="url(#paint1_linear_0_148)"/>
<path d="M9.0736 10.3468C6.6342 11.3264 4.34327 12.6413 2.26693 14.2535C3.21679 11.3196 4.87872 8.66674 7.10421 6.53199C9.32969 4.39725 12.0494 2.84712 15.0203 2.02014C13.4333 3.95049 12.1126 6.0851 11.0936 8.36681H10.9869C10.4742 8.36681 9.98242 8.5705 9.61985 8.93307C9.25728 9.29564 9.0536 9.78739 9.0536 10.3001C9.05545 10.3173 9.06242 10.3336 9.0736 10.3468Z" fill="url(#paint2_linear_0_148)"/>
<path d="M12.2865 8.85344C13.4923 6.17363 15.1296 3.70981 17.1331 1.56011C18.0988 1.40667 19.0753 1.33086 20.0531 1.33344C21.0243 1.33084 21.9941 1.40665 22.9531 1.56011C24.9597 3.7238 26.599 6.2009 27.8065 8.89345C27.666 9.0313 27.5429 9.18577 27.4398 9.35344C24.9272 8.64713 22.3298 8.28825 19.7198 8.28678C17.3081 8.28738 14.9064 8.59655 12.5731 9.20677C12.4922 9.07786 12.3959 8.95922 12.2865 8.85344Z" fill="url(#paint3_linear_0_148)"/>
<path d="M28.134 30.5067C26.9027 33.4617 25.1504 36.1714 22.9606 38.5067C21.0324 38.8089 19.0689 38.8089 17.1406 38.5067C14.956 36.1688 13.2063 33.4596 11.974 30.5067C12.0864 30.4053 12.189 30.2937 12.2806 30.1733C14.706 30.8311 17.2077 31.1652 19.7206 31.1667C22.4296 31.1652 25.1241 30.7723 27.7206 30C27.8297 30.1904 27.9693 30.3616 28.134 30.5067Z" fill="url(#paint4_linear_0_148)"/>
<path d="M29.067 12.2132C30.5413 17.0599 30.6198 22.2239 29.2937 27.1132C28.8493 27.1343 28.4259 27.3084 28.0954 27.6062C27.7649 27.9039 27.5475 28.3068 27.4803 28.7465C24.9628 29.5023 22.3488 29.8886 19.7203 29.8932C17.3317 29.8888 14.9538 29.5728 12.647 28.9532C12.6289 28.4721 12.4302 28.0155 12.0904 27.6744C11.7506 27.3334 11.2947 27.133 10.8136 27.1132C9.49158 22.2264 9.56548 17.0668 11.027 12.2199C11.5131 12.2123 11.9785 12.0212 12.3296 11.6849C12.6808 11.3486 12.8918 10.8919 12.9203 10.4065C17.6125 9.18387 22.5471 9.24604 27.207 10.5865C27.2747 11.0338 27.4987 11.4426 27.8392 11.7404C28.1797 12.0382 28.6147 12.2057 29.067 12.2132Z" fill="url(#paint5_radial_0_148)"/>
<path d="M29.0206 8.34686C27.9902 6.06765 26.668 3.932 25.0872 1.99353C28.18 2.85474 30.9994 4.4966 33.2748 6.76146C35.5502 9.02632 37.205 11.8381 38.0806 14.9269C35.9519 13.1431 33.5733 11.6809 31.0206 10.5869C31.0311 10.4871 31.0311 10.3866 31.0206 10.2869C31.0188 9.7735 30.8136 9.28176 30.45 8.91938C30.0864 8.557 29.5939 8.35352 29.0806 8.35353L29.0206 8.34686Z" fill="url(#paint6_linear_0_148)"/>
<path d="M31.2863 28.7003C33.8221 27.5734 36.1784 26.0796 38.2796 24.267C37.5215 27.5425 35.895 30.5532 33.5711 32.9827C31.2471 35.4123 28.3115 37.1709 25.0729 38.0736C26.8314 35.9273 28.2666 33.5353 29.3329 30.9736H29.3796C29.6615 30.9707 29.9394 30.9068 30.1942 30.7863C30.4491 30.6658 30.6748 30.4916 30.856 30.2756C31.0371 30.0597 31.1694 29.807 31.2436 29.5351C31.3179 29.2632 31.3324 28.9784 31.2863 28.7003Z" fill="url(#paint7_linear_0_148)"/>
<path d="M38.7669 20.0468C38.7665 20.7688 38.722 21.4902 38.6336 22.2068C36.3088 24.4625 33.5995 26.2845 30.6336 27.5868C30.5961 27.5479 30.5535 27.5142 30.5069 27.4868C31.9084 22.3467 31.8252 16.9148 30.2669 11.8201L30.3936 11.7201C33.4037 13.007 36.155 14.8299 38.5136 17.1001C38.679 18.0737 38.7638 19.0592 38.7669 20.0468Z" fill="url(#paint8_linear_0_148)"/>
<defs>
<linearGradient id="paint0_linear_0_148" x1="1.33318" y1="19.6601" x2="9.8065" y2="19.6601" gradientUnits="userSpaceOnUse">
<stop stop-color="#3AB4E6"/>
<stop offset="1" stop-color="#004996"/>
</linearGradient>
<linearGradient id="paint1_linear_0_148" x1="6.79333" y1="33.2997" x2="9.66" y2="30.3597" gradientUnits="userSpaceOnUse">
<stop stop-color="#F08504"/>
<stop offset="1" stop-color="#E5322D"/>
</linearGradient>
<linearGradient id="paint2_linear_0_148" x1="7.02693" y1="6.50014" x2="9.43359" y2="8.90681" gradientUnits="userSpaceOnUse">
<stop stop-color="#F08504"/>
<stop offset="1" stop-color="#E5322D"/>
</linearGradient>
<linearGradient id="paint3_linear_0_148" x1="20.0465" y1="1.92677" x2="20.0465" y2="8.13344" gradientUnits="userSpaceOnUse">
<stop stop-color="#E53282"/>
<stop offset="1" stop-color="#851D7B"/>
</linearGradient>
<linearGradient id="paint4_linear_0_148" x1="20.054" y1="31.2867" x2="20.054" y2="38.7267" gradientUnits="userSpaceOnUse">
<stop stop-color="#851D7B"/>
<stop offset="1" stop-color="#E53282"/>
</linearGradient>
<radialGradient id="paint5_radial_0_148" cx="0" cy="0" r="1" gradientUnits="userSpaceOnUse" gradientTransform="translate(20.0536 19.7132) scale(10.18 10.18)">
<stop stop-color="#97BE11"/>
<stop offset="0.16" stop-color="#92BC12"/>
<stop offset="0.36" stop-color="#82B516"/>
<stop offset="0.58" stop-color="#69AB1C"/>
<stop offset="0.82" stop-color="#459C25"/>
<stop offset="1" stop-color="#258F2D"/>
</radialGradient>
<linearGradient id="paint6_linear_0_148" x1="30.4806" y1="9.28686" x2="33.5806" y2="6.9602" gradientUnits="userSpaceOnUse">
<stop stop-color="#E5322D"/>
<stop offset="1" stop-color="#F08504"/>
</linearGradient>
<linearGradient id="paint7_linear_0_148" x1="30.7396" y1="30.3803" x2="33.6863" y2="32.8603" gradientUnits="userSpaceOnUse">
<stop stop-color="#E5322D"/>
<stop offset="1" stop-color="#F08504"/>
</linearGradient>
<linearGradient id="paint8_linear_0_148" x1="30.2803" y1="19.6534" x2="38.7669" y2="19.6534" gradientUnits="userSpaceOnUse">
<stop stop-color="#004996"/>
<stop offset="1" stop-color="#3AB4E6"/>
</linearGradient>
</defs>
</svg>
