<svg width="20" height="20" viewBox="0 0 20 20" fill="none" xmlns="http://www.w3.org/2000/svg">
<path d="M9.07321 0.616768C9.41756 -0.205396 10.5824 -0.205398 10.9268 0.616766L12.9677 5.48949C13.1125 5.83537 13.438 6.0718 13.8117 6.10269L19.0766 6.53793C19.9649 6.61137 20.3249 7.71923 19.6494 8.30079L15.6458 11.7475C15.3616 11.9922 15.2373 12.3747 15.3234 12.7397L16.5364 17.8814C16.7411 18.749 15.7987 19.4337 15.0368 18.9709L10.5216 16.2284C10.2011 16.0338 9.79888 16.0338 9.47837 16.2284L4.96315 18.9709C4.20131 19.4337 3.25891 18.749 3.46358 17.8814L4.67658 12.7397C4.76269 12.3747 4.63839 11.9922 4.3542 11.7475L0.350633 8.30079C-0.324881 7.71923 0.0350863 6.61137 0.923422 6.53793L6.18832 6.10269C6.56204 6.0718 6.88746 5.83537 7.03233 5.48949L9.07321 0.616768Z" fill="#FFC107"/>
</svg>
